<svg width="40" height="40" viewBox="0 0 40 40" fill="none" xmlns="http://www.w3.org/2000/svg">
<path d="M20 21.6665C22.7614 21.6665 25 19.4279 25 16.6665C25 13.9051 22.7614 11.6665 20 11.6665C17.2386 11.6665 15 13.9051 15 16.6665C15 19.4279 17.2386 21.6665 20 21.6665Z" stroke="white" stroke-width="2" stroke-linecap="round" stroke-linejoin="round"/>
<path d="M20 3.33325C16.4638 3.33325 13.0724 4.73801 10.5719 7.23849C8.07145 9.73898 6.66669 13.1304 6.66669 16.6666C6.66669 19.8199 7.33669 21.8833 9.16669 24.1666L20 36.6666L30.8334 24.1666C32.6634 21.8833 33.3334 19.8199 33.3334 16.6666C33.3334 13.1304 31.9286 9.73898 29.4281 7.23849C26.9276 4.73801 23.5362 3.33325 20 3.33325V3.33325Z" stroke="white" stroke-width="2" stroke-linecap="round" stroke-linejoin="round"/>
</svg>
